HIERARCHY
ROOT Hips
{
  OFFSET 5.80788e-005 67.184 3.4734
  CHANNELS 6 Xposition Yposition Zposition Zrotation Xrotation Yrotation
  JOINT Chest
  {
    OFFSET 0 8.7983 -4.7612
    CHANNELS 3 Zrotation Xrotation Yrotation
    JOINT Chest2
    {
      OFFSET 0 8.0291 0.4195
      CHANNELS 3 Zrotation Xrotation Yrotation
      JOINT Chest3
      {
        OFFSET 0 9.9351 -2.2114
        CHANNELS 3 Zrotation Xrotation Yrotation
        JOINT Neck
        {
          OFFSET 0 22.3885 -0.4656
          CHANNELS 3 Zrotation Xrotation Yrotation
          JOINT Head
          {
            OFFSET -0.0001 12.643 3.4389
            CHANNELS 3 Zrotation Xrotation Yrotation
            End Site
            {
              OFFSET 0.0001 17.6655 0.5274
            }
          }
        }
        JOINT LeftCollar
        {
          OFFSET 2.2603 21.606 7.4023
          CHANNELS 3 Zrotation Xrotation Yrotation
          JOINT LeftShoulder
          {
            OFFSET 13.5163 -1.1332 -5.0146
            CHANNELS 3 Zrotation Xrotation Yrotation
            JOINT LeftElbow
            {
              OFFSET -0.0995 -28.05 -0.2431
              CHANNELS 3 Zrotation Xrotation Yrotation
              JOINT LeftWrist
              {
                OFFSET 0.0679 -23.3996 -0.1402
                CHANNELS 3 Zrotation Xrotation Yrotation
                JOINT LeftFinger1
                {
                  OFFSET 0.7932 -9.069 2.5189
                  CHANNELS 3 Zrotation Xrotation Yrotation
                  JOINT LeftFinger11
                  {
                    OFFSET -0.8272 -3.3923 0.5977
                    CHANNELS 3 Zrotation Xrotation Yrotation
                    JOINT LeftFinger12
                    {
                      OFFSET -0.5649 -2.3158 0.4082
                      CHANNELS 3 Zrotation Xrotation Yrotation
                      End Site
                      {
                        OFFSET -0.4919 -1.6479 0.2673
                      }
                    }
                  }
                }
                JOINT LeftFinger2
                {
                  OFFSET 0.9159 -9.2044 0.2193
                  CHANNELS 3 Zrotation Xrotation Yrotation
                  JOINT LeftFinger21
                  {
                    OFFSET 0.0117 -4.1944 -0.0248
                    CHANNELS 3 Zrotation Xrotation Yrotation
                    JOINT LeftFinger22
                    {
                      OFFSET 0.0071 -2.3249 -0.0142
                      CHANNELS 3 Zrotation Xrotation Yrotation
                      End Site
                      {
                        OFFSET -0.1475 -2.0882 0.0028
                      }
                    }
                  }
                }
                JOINT LeftFinger3
                {
                  OFFSET 0.6113 -8.7231 -2.0637
                  CHANNELS 3 Zrotation Xrotation Yrotation
                  JOINT LeftFinger31
                  {
                    OFFSET -0.1927 -3.8059 -0.2383
                    CHANNELS 3 Zrotation Xrotation Yrotation
                    JOINT LeftFinger32
                    {
                      OFFSET -0.1091 -2.1688 -0.1362
                      CHANNELS 3 Zrotation Xrotation Yrotation
                      End Site
                      {
                        OFFSET -0.2358 -1.9176 -0.0906
                      }
                    }
                  }
                }
                JOINT LeftFinger4
                {
                  OFFSET -0.6151 -8.0947 -3.5641
                  CHANNELS 3 Zrotation Xrotation Yrotation
                  JOINT LeftFinger41
                  {
                    OFFSET -0.4882 -2.341 -0.6462
                    CHANNELS 3 Zrotation Xrotation Yrotation
                    JOINT LeftFinger42
                    {
                      OFFSET -0.3575 -1.7167 -0.4742
                      CHANNELS 3 Zrotation Xrotation Yrotation
                      End Site
                      {
                        OFFSET -0.4187 -1.5237 -0.3496
                      }
                    }
                  }
                }
                JOINT LeftFinger0
                {
                  OFFSET -1.42 -1.8761 1.4223
                  CHANNELS 3 Zrotation Xrotation Yrotation
                  JOINT LeftFinger01
                  {
                    OFFSET -1.1471 -3.4929 2.6334
                    CHANNELS 3 Zrotation Xrotation Yrotation
                    JOINT LeftFinger02
                    {
                      OFFSET -0.823 -2.3 1.6571
                      CHANNELS 3 Zrotation Xrotation Yrotation
                      End Site
                      {
                        OFFSET -0.5822 -1.6914 1.1582
                      }
                    }
                  }
                }
              }
            }
          }
        }
        JOINT RightCollar
        {
          OFFSET -2.2603 21.606 7.4023
          CHANNELS 3 Zrotation Xrotation Yrotation
          JOINT RightShoulder
          {
            OFFSET -13.5187 -1.1334 -5.0155
            CHANNELS 3 Zrotation Xrotation Yrotation
            JOINT RightElbow
            {
              OFFSET 0.0994 -28.0499 -0.2431
              CHANNELS 3 Zrotation Xrotation Yrotation
              JOINT RightWrist
              {
                OFFSET -0.0679 -23.3996 -0.1402
                CHANNELS 3 Zrotation Xrotation Yrotation
                JOINT RightFinger1
                {
                  OFFSET -0.7932 -9.0691 2.5189
                  CHANNELS 3 Zrotation Xrotation Yrotation
                  JOINT RightFinger11
                  {
                    OFFSET 0.8272 -3.3923 0.5977
                    CHANNELS 3 Zrotation Xrotation Yrotation
                    JOINT RightFinger12
                    {
                      OFFSET 0.565 -2.3158 0.4082
                      CHANNELS 3 Zrotation Xrotation Yrotation
                      End Site
                      {
                        OFFSET 0.4919 -1.6479 0.2673
                      }
                    }
                  }
                }
                JOINT RightFinger2
                {
                  OFFSET -0.916 -9.2044 0.2193
                  CHANNELS 3 Zrotation Xrotation Yrotation
                  JOINT RightFinger21
                  {
                    OFFSET -0.0117 -4.1944 -0.0248
                    CHANNELS 3 Zrotation Xrotation Yrotation
                    JOINT RightFinger22
                    {
                      OFFSET -0.0071 -2.3249 -0.0142
                      CHANNELS 3 Zrotation Xrotation Yrotation
                      End Site
                      {
                        OFFSET 0.1475 -2.0882 0.0028
                      }
                    }
                  }
                }
                JOINT RightFinger3
                {
                  OFFSET -0.6113 -8.7231 -2.0637
                  CHANNELS 3 Zrotation Xrotation Yrotation
                  JOINT RightFinger31
                  {
                    OFFSET 0.1927 -3.8059 -0.2383
                    CHANNELS 3 Zrotation Xrotation Yrotation
                    JOINT RightFinger32
                    {
                      OFFSET 0.1091 -2.1688 -0.1362
                      CHANNELS 3 Zrotation Xrotation Yrotation
                      End Site
                      {
                        OFFSET 0.2358 -1.9176 -0.0906
                      }
                    }
                  }
                }
                JOINT RightFinger4
                {
                  OFFSET 0.6151 -8.0947 -3.564
                  CHANNELS 3 Zrotation Xrotation Yrotation
                  JOINT RightFinger41
                  {
                    OFFSET 0.4882 -2.341 -0.6462
                    CHANNELS 3 Zrotation Xrotation Yrotation
                    JOINT RightFinger42
                    {
                      OFFSET 0.3574 -1.7166 -0.4742
                      CHANNELS 3 Zrotation Xrotation Yrotation
                      End Site
                      {
                        OFFSET 0.4187 -1.5237 -0.3496
                      }
                    }
                  }
                }
                JOINT RightFinger0
                {
                  OFFSET 1.4199 -1.8761 1.4221
                  CHANNELS 3 Zrotation Xrotation Yrotation
                  JOINT RightFinger01
                  {
                    OFFSET 1.1472 -3.4929 2.6336
                    CHANNELS 3 Zrotation Xrotation Yrotation
                    JOINT RightFinger02
                    {
                      OFFSET 0.8229 -2.3 1.6571
                      CHANNELS 3 Zrotation Xrotation Yrotation
                      End Site
                      {
                        OFFSET 0.5822 -1.6914 1.1582
                      }
                    }
                  }
                }
              }
            }
          }
        }
      }
    }
  }
  JOINT RightHip
  {
    OFFSET -9.412 3.9771 -0.7758
    CHANNELS 3 Zrotation Xrotation Yrotation
    JOINT RightKnee
    {
      OFFSET -0.7531 -40.938 0
      CHANNELS 3 Zrotation Xrotation Yrotation
      JOINT RightAnkle
      {
        OFFSET 0 -40.1986 0
        CHANNELS 3 Zrotation Xrotation Yrotation
        JOINT RightToe
        {
          OFFSET 0 -4.4182 9.239
          CHANNELS 3 Zrotation Xrotation Yrotation
          End Site
          {
            OFFSET 0 0 6.1981
          }
        }
      }
    }
  }
  JOINT LeftHip
  {
    OFFSET 9.4119 3.9773 -0.7758
    CHANNELS 3 Zrotation Xrotation Yrotation
    JOINT LeftKnee
    {
      OFFSET 0.7532 -40.9383 0
      CHANNELS 3 Zrotation Xrotation Yrotation
      JOINT LeftAnkle
      {
        OFFSET 0 -40.1986 0
        CHANNELS 3 Zrotation Xrotation Yrotation
        JOINT LeftToe
        {
          OFFSET 0 -4.4182 9.239
          CHANNELS 3 Zrotation Xrotation Yrotation
          End Site
          {
            OFFSET 0 0 6.1981
          }
        }
      }
    }
  }
}
MOTION
Frames:	4
Frame Time:	0.0333333
5.80788e-005 67.184 3.4734 0 0 -0 0 0 -0 0 0 -0 0 0 -0 0 0 -0 0 0 -0 0 0 -12.5014 88.1196 14.2451 10.6914 -0.00160068 -0.00239207 0.000740045 -8.4365e-005 7.00714e-005 -9.52055e-007 9.93923e-017 -1.98785e-016 -1.59028e-015 9.93923e-017 -5.96354e-016 -1.59028e-015 -9.93923e-017 -5.96354e-016 -1.59028e-015 9.93923e-017 -1.98785e-016 -1.59028e-015 -0.0128176 0.00232552 8.52707e-005 9.93923e-017 5.96354e-016 -0 9.93923e-017 -1.98785e-016 -1.59028e-015 -0.0160551 0.00299681 0.000857156 -2.48481e-016 0 3.18055e-015 9.93923e-017 -1.98785e-016 -1.59028e-015 -0.0125865 0.0031206 0.00282719 0 1.98785e-016 -0 9.93923e-017 -1.98785e-016 -1.59028e-015 9.93923e-017 -5.96354e-016 -1.59028e-015 -9.93923e-017 -5.96354e-016 -1.59028e-015 -0.865644 0.16582 7.03859 -88.0329 10.2057 -10.5567 0.0015593 -0.00248883 -0.000788628 7.87605e-005 4.10553e-005 1.24965e-005 -3.97569e-016 -7.95139e-016 3.18055e-015 -1.98785e-016 -3.97569e-016 3.18055e-015 -1.98785e-016 0 3.18055e-015 -3.97569e-016 -7.95139e-016 3.18055e-015 0.0129473 0.00231697 -8.70038e-005 9.93923e-017 -7.95139e-016 1.59028e-015 -3.97569e-016 -7.95139e-016 3.18055e-015 0.0163314 0.00303369 -0.000872333 3.97569e-016 7.95139e-016 -3.18055e-015 -3.97569e-016 -7.95139e-016 3.18055e-015 0.0145763 0.00367772 -0.00326275 9.93923e-017 -3.97569e-016 -0 -3.97569e-016 -7.95139e-016 3.18055e-015 -1.98785e-016 -3.97569e-016 3.18055e-015 -1.98785e-016 0 3.18055e-015 3.42485 1.36937 -0.0640303 0.000136572 0.69354 0.00145564 -3.42573 -2.06297 -0.0607933 -3.19502e-024 0 -1.48106e-024 -3.42498 1.36123 0.0639712 -6.769e-005 0.712612 -0.0012277 3.42582 -2.07388 0.0612819 2.55305e-023 0 -2.31416e-026 
-6.94836 16.9577 38.314 180 75.0041 -180 -0.100354 -5.75319 -0.431084 -0.246346 -11.5055 -0.879058 -0.246348 -11.5055 -0.879062 -2.48005e-006 -31.0028 -3.8187e-006 -1.41593e-006 -15.0017 -2.11144e-007 -5.91041 -8.01684 -37.7506 95.1436 -5.92787 9.64919 45.4662 -43.6908 27.1067 9.20559 -0.550905 8.20161 -1.58625e-032 3.97569e-016 2.28602e-015 -3.1725e-032 7.95139e-016 2.28602e-015 -2.75869e-033 7.95139e-016 1.98785e-016 -1.58625e-032 3.97569e-016 2.28602e-015 -0.0128363 0.00233639 8.72338e-005 -1.63105e-006 -3.39888e-006 -7.90133e-008 -1.58625e-032 3.97569e-016 2.28602e-015 -0.0159712 0.0029816 0.000853339 -3.03456e-032 -3.97569e-016 -4.37326e-015 -1.58625e-032 3.97569e-016 2.28602e-015 -0.0126396 0.00314185 0.00284702 0 0 -1.59028e-015 -1.58625e-032 3.97569e-016 2.28602e-015 -3.1725e-032 7.95139e-016 2.28602e-015 -2.75869e-033 7.95139e-016 1.98785e-016 -4.01349 11.026 -2.9449 19.8927 35.002 12.1118 -1.97239 -21.478 8.68653 -22.9723 -26.4409 -60.3983 -6.62416e-006 1.51673e-006 3.47629e-006 4.2229e-006 2.85235e-006 4.34174e-006 -1.79359e-006 -1.5643e-005 1.40139e-005 -6.62416e-006 1.51673e-006 3.47629e-006 0.0129629 0.00230814 -8.02727e-005 -3.13166e-006 -3.57033e-007 7.80566e-007 -6.62416e-006 1.51673e-006 3.47629e-006 0.0163518 0.0030263 -0.000864917 -7.829e-006 -1.06734e-007 1.95128e-006 -6.62416e-006 1.51673e-006 3.47629e-006 0.0146236 0.00368548 -0.0032549 -3.00615e-006 -1.65368e-006 1.62134e-006 -6.62416e-006 1.51673e-006 3.47629e-006 4.2229e-006 2.85235e-006 4.34174e-006 -1.79359e-006 -1.5643e-005 1.40139e-005 -107.256 -41.2398 -110.713 -68.1134 81.3496 76.8502 -28.2864 33.0907 56.9706 2.9451e-007 -1.35776e-008 3.08591e-007 107.282 -41.2485 110.702 68.0126 81.388 -76.7591 28.2795 33.1197 -56.991 3.14632e-007 -7.16722e-008 -8.9598e-007 
-6.94844 16.596 38.3433 -180 76.1104 -180 -0.103503 -5.32509 -0.430041 -0.248972 -10.6492 -0.875505 -0.248973 -10.6493 -0.875507 -3.55614e-006 -31.6131 -4.69414e-006 9.59847e-007 -15.4459 3.62069e-007 -5.30833 -8.70526 -37.9071 95.1436 -5.92786 9.64918 44.9022 -43.3559 26.7242 9.80362 -0.612928 8.60743 -3.18055e-015 3.97569e-016 2.98177e-016 -1.63142e-006 -3.56048e-006 -7.59501e-008 -9.54166e-015 0 8.94531e-016 -3.18055e-015 3.97569e-016 2.98177e-016 -0.012778 0.00231257 8.90327e-005 -4.34069e-006 -9.69597e-007 -2.75516e-006 -3.18055e-015 3.97569e-016 2.98177e-016 -0.016085 0.00300523 0.000868643 2.48282e-032 -3.97569e-016 3.57812e-015 -3.18055e-015 3.97569e-016 2.98177e-016 -0.0125908 0.00311409 0.00282839 -3.18055e-015 1.59028e-015 -1.19271e-015 -3.18055e-015 3.97569e-016 2.98177e-016 -1.63142e-006 -3.56048e-006 -7.59501e-008 -9.54166e-015 0 8.94531e-016 -2.81519 9.76941 -2.78672 19.0543 35.833 10.5514 -1.20022 -23.6586 7.18599 -21.0861 -25.6336 -60.062 -3.18055e-015 -1.43125e-014 -0 6.7426e-006 6.53569e-006 -3.45557e-006 3.18055e-015 4.77083e-015 1.59028e-014 -3.18055e-015 -1.43125e-014 -0 0.0129631 0.00233002 -9.80071e-005 -2.64834e-031 -3.18055e-015 -4.77083e-015 -3.18055e-015 -1.43125e-014 -0 0.016332 0.00305157 -0.000884141 8.82781e-032 -1.59028e-015 3.18055e-015 -3.18055e-015 -1.43125e-014 -0 0.0145579 0.00368669 -0.00326116 -9.93129e-031 -7.95139e-015 -7.15625e-015 -3.18055e-015 -1.43125e-014 -0 6.7426e-006 6.53569e-006 -3.45557e-006 3.18055e-015 4.77083e-015 1.59028e-014 -106.094 -40.3081 -109.933 -67.7773 81.3292 76.5114 -29.8082 32.4529 58.173 3.34705e-008 4.90525e-006 -5.43343e-007 106.121 -40.3536 109.896 67.6746 81.3675 -76.419 29.7505 32.492 -58.1552 1.05033e-006 -2.46952e-006 -1.27081e-007 
-6.94851 16.235 38.3755 180 77.2185 -180 -0.106612 -4.89137 -0.428668 -0.251491 -9.78177 -0.871302 -0.251492 -9.78179 -0.871304 -9.36941e-007 -32.2237 -1.86027e-006 2.81242e-007 -15.8902 1.09555e-007 -4.70634 -9.396 -38.0567 95.1437 -5.92783 9.6492 44.344 -43.0183 26.3483 10.4025 -0.670743 9.01416 -3.44836e-032 7.95139e-016 2.48481e-015 -0 0 2.08724e-015 -0 0 1.88845e-015 -3.44836e-032 7.95139e-016 2.48481e-015 -0.0127957 0.00232453 9.04608e-005 9.54166e-015 1.59028e-015 -7.95139e-016 -3.44836e-032 7.95139e-016 2.48481e-015 -0.0159587 0.00297268 0.000858098 -6.36111e-015 -7.95139e-016 -1.98785e-015 -3.44836e-032 7.95139e-016 2.48481e-015 -0.0125574 0.00311354 0.00282228 3.18055e-015 3.97569e-016 9.93923e-017 -3.44836e-032 7.95139e-016 2.48481e-015 -0 0 2.08724e-015 -0 0 1.88845e-015 -1.61298 8.51152 -2.6018 18.2301 36.688 8.97876 -0.474915 -25.8672 5.68469 -19.209 -24.8129 -59.756 -3.18055e-015 -1.59028e-015 -3.97569e-015 6.36111e-015 1.59028e-015 7.95139e-016 3.18055e-015 1.59028e-015 -3.18055e-015 -3.18055e-015 -1.59028e-015 -3.97569e-015 0.0129443 0.00232144 -0.000100961 6.36111e-015 6.36111e-015 -0 -3.18055e-015 -1.59028e-015 -3.97569e-015 0.0163069 0.00304099 -0.000879964 3.18055e-015 0 1.98785e-015 -3.18055e-015 -1.59028e-015 -3.97569e-015 0.0146051 0.00367997 -0.00327042 -1.65521e-031 1.59028e-015 5.96354e-015 -3.18055e-015 -1.59028e-015 -3.97569e-015 6.36111e-015 1.59028e-015 7.95139e-016 3.18055e-015 1.59028e-015 -3.18055e-015 -104.965 -39.3643 -109.19 -67.448 81.3088 76.18 -31.3058 31.7873 59.3486 2.95367e-007 -1.14206e-008 3.0745e-007 104.991 -39.4464 109.125 67.3436 81.3469 -76.0864 31.1981 31.8382 -59.2934 -7.54233e-007 -6.59275e-009 4.36884e-007 
